<svg xmlns="http://www.w3.org/2000/svg" viewBox="0 0 500 500"><g id="freepik--Drink--inject-31"><circle cx="336.64" cy="135.86" r="75.39" transform="translate(2.54 277.84) rotate(-45)" style="fill:#C8F169;stroke:#263238;stroke-miterlimit:10"></circle><circle cx="336.64" cy="135.86" r="70.77" transform="translate(2.54 277.84) rotate(-45)" style="fill:none;stroke:#263238;stroke-miterlimit:10"></circle><path d="M356.74,76.64c1.09-2-4.45-8.7-16.08-9-13.6-.36-17.8,2.58-19.43,7.2,0,0,13.6,53.51,15.23,54.84S355.65,78.63,356.74,76.64Z" style="fill:#fff"></path><path d="M333.1,131.25c2.1.11-14.48-52.58-14.77-54.82S309.61,72,300,78.59c-11.21,7.71-12.88,12.55-11.49,17.25C288.54,95.84,331,131.14,333.1,131.25Z" style="fill:#fff"></path><path d="M274.45,132s55.09,3.6,56.85,2.46-42.62-34-44.17-35.67-9.65,1.54-13.53,12.5C269.06,124.16,270.55,129.06,274.45,132Z" style="fill:#fff"></path><path d="M342.64,133.09c-.75,2,54.48,2.47,56.7,2.9s6.91-6.93,3.6-18.07c-3.87-13.06-7.95-16.14-12.86-16.26C390.08,101.66,343.39,131.13,342.64,133.09Z" style="fill:#fff"></path><path d="M387.68,99.39c2.05-1,1.52-9.66-7.71-16.73-10.8-8.29-15.92-8.38-20-5.6,0,0-20.45,51.29-19.91,53.32S385.64,100.36,387.68,99.39Z" style="fill:#fff"></path><path d="M336.17,141.9c-1.71,1.22-18.64,53.77-18.64,53.77,1.34,4.72,5.34,7.91,19,8.41,11.61.43,17.56-5.93,16.6-8S337.88,140.69,336.17,141.9Z" style="fill:#fff"></path><path d="M332.91,140.12c-2.1,0-46.68,32.55-46.68,32.55-1.69,4.6-.33,9.54,10.38,17.94,9.15,7.17,17.7,5.52,18.13,3.3S335,140.14,332.91,140.12Z" style="fill:#fff"></path><path d="M331.32,136.76c-1.68-1.25-56.9-1.11-56.9-1.11-4.07,2.74-5.87,7.53-2.14,20.62,3.18,11.19,11.08,14.88,12.73,13.33S333,138,331.32,136.76Z" style="fill:#fff"></path><path d="M399.32,139.54c-2.24.29-57.4-2.66-56.77-.66s45.38,34.35,45.38,34.35c4.9.18,9.17-2.64,13.85-15.42C405.78,146.89,401.56,139.26,399.32,139.54Z" style="fill:#fff"></path><path d="M385.39,175.33c-2-1.09-44.87-35.89-45.54-33.9s16.52,54.46,16.52,54.46c3.86,3,9,3.26,20.28-4.34C386.3,185.07,387.37,176.42,385.39,175.33Z" style="fill:#fff"></path><g id="freepik--cherry-1--inject-31"><path d="M342.64,120.42a19.33,19.33,0,0,0-22.62-8c-15.3,4.66-22.62,22.62-20,34.59s10,25.28,30.61,30.61,39.25-12,39.91-28.61-5.32-24-10.64-25.95S342.64,120.42,342.64,120.42Z" style="fill:#C8F169;stroke:#263238;stroke-miterlimit:10"></path><path d="M336.76,126.74c-6.74-10.95-12.87-13.93-17.43-14.07-14.83,5-21.89,22.57-19.27,34.36,2.45,11,8.87,23.19,26,29.2C341.64,165.19,347.69,144.51,336.76,126.74Z" style="fill:#fff;opacity:0.16"></path><path d="M342.64,120.42s16.21-34.48,30.87-44.49a241.77,241.77,0,0,1,29-16.8s14.66-4.65,15.37,2.5S413.92,67.71,410,67s-5.72-1.43-11.79.36-19.31,5.72-26.46,13.59-22.89,39-22.89,39Z" style="fill:#263238;stroke:#263238;stroke-linecap:round;stroke-linejoin:round"></path><path d="M321.81,126.13s-4.18-1-7,4.18-.35,9.42,1.39,9.42,9.77-4.53,10.11-8.37S327,124.39,321.81,126.13Z" style="fill:#fff"></path><path d="M339.44,118.29s1.49,4,4.31,5,8.3-.67,8.3-.67A11.35,11.35,0,0,1,339.44,118.29Z" style="fill:#fff"></path></g><path d="M320.75,419.13l-.49,5.33c0,15.7-44.3,28.42-98.94,28.42s-98.94-12.72-98.94-28.42l-1.48-16c-53.43,4.1-90.52,13.1-90.52,23.55C30.38,446.34,100,458,185.87,458S341.35,446.34,341.35,432C341.35,427.34,333.85,422.93,320.75,419.13Z" style="opacity:0.2"></path><path d="M139.85,167.92s25.29-21.68,27.52-22.79,37.79-8.61,42.24-6.67,24.45,29.18,24.45,29.18Z" style="fill:none;stroke:#263238;stroke-miterlimit:10"></path><path d="M102.23,165.83l20.15,258.63c0,15.7,44.3,28.42,98.94,28.42s98.94-12.72,98.94-28.42L340.4,165.83Z" style="fill:none;stroke:#263238;stroke-linecap:round;stroke-linejoin:round"></path><path d="M104.34,168.64l17.29,224.42c0,15.63,44.63,28.29,99.69,28.29S321,408.69,321,393.06l17.29-224.42Z" style="fill:#C8F169"></path><g style="opacity:0.13"><path d="M104.34,168.64l17.29,224.42c0,15.63,44.63,28.29,99.69,28.29S321,408.69,321,393.06l17.29-224.42Z"></path></g><path d="M142.18,436.55s25.82,5.07,28.62,5.65c10.92,2.26,21.09,4.9,32,5.65s12.81,1.51,27.87.76,24.11-3.39,24.11-3.39,11.67,0,13.18-.76,3.77-.75,6.4-1.13,6-.75,6-.75,0,2.64,6-1.51,7.91-3.76,6-4.14-8.28,0-10.92,1.13a16.94,16.94,0,0,1-6.4,1.51c-1.51,0-1.51-.76-4.15-.38s-2.26.75-5.27,1.51a23.57,23.57,0,0,1-6.4.75H248s-3.39.75-5.27,1.13a35.62,35.62,0,0,1-5.28.38,53,53,0,0,1-7.15-.76,73.86,73.86,0,0,0-9.79-.75s-7.16.38-8.29.38a37,37,0,0,0-6.78,0,55.17,55.17,0,0,1-6.78.37H193s-3.77.1-4.89,0c-4.52-.37-6.41-.37-6.41-.37s-3.76-1.89-5.27-1.89-.75-.37-3.39-.37-5.65-.38-7.16-.38-19.58-4.52-19.58-4.52S139.92,433.54,142.18,436.55Z" style="fill:#C8F169"></path><path d="M122.21,402.28s11.3,10.92,17.71,12.43,11.67,2.26,9.41,4.52-3.76,3.39-2.26,5.27,5.28,4.15,3,5.28-13.19-1.13-12.43,1.88,4.52,4.89,4.52,4.89,6.4,3.77,5.27,4.52-13.94-5.27-18.08-8.28-5.65-3.77-6.4-13.56S122.21,402.28,122.21,402.28Z" style="fill:#263238;stroke:#263238;stroke-linecap:round;stroke-linejoin:round"></path><path d="M318.82,406.42s-1.13,3.77-9.42,6-17.32,4.9-17.7,7.16,0,3.39-3.39,4.14-15.07,3.39-15.07,3.39,16.58.75,24.11-2.26,15.06-8.66,16.95-6a7.08,7.08,0,0,1-1.13,9.42c-3,2.64-10.17,0-13.18,1.88s-7.16,8.29-3.39,8.29,10.92-4.14,16.19-7.16,6.4-6.4,6.4-14.31A91.82,91.82,0,0,0,318.82,406.42Z" style="fill:#263238;stroke:#263238;stroke-linecap:round;stroke-linejoin:round"></path><path d="M230.17,203.09c-12.72,16.84-34.09,43.07-34.68,44.23" style="fill:none;stroke:#263238;stroke-miterlimit:10"></path><path d="M235.3,173.7s5.18,10.91,4.09,15.82c-.23,1-2.36,4.26-5.57,8.65" style="fill:none;stroke:#263238;stroke-miterlimit:10"></path><path d="M138.2,255.92a22.21,22.21,0,0,0,4.4,3.4c4.09,1.91,9-1.91,9-1.91" style="fill:none;stroke:#263238;stroke-miterlimit:10"></path><path d="M138,173.16s-24,48-22.08,53.71a43.85,43.85,0,0,0,7.63,13.63c1.37,1.55,6.94,7.82,11.91,12.75" style="fill:none;stroke:#263238;stroke-miterlimit:10"></path><path d="M277.58,234.47c-6.53-3.68-15.83-7.6-15.83-7.6" style="fill:none;stroke:#263238;stroke-miterlimit:10"></path><path d="M219.49,232.05s-6.27,24.27-4.91,26.18S244,276.77,254.66,280s28.63-37.08,29.17-40.35c.1-.59-.55-1.38-1.68-2.28" style="fill:none;stroke:#263238;stroke-miterlimit:10"></path><path d="M211.15,279.6c-.31,3.69-.35,6.8.16,8.07" style="fill:none;stroke:#263238;stroke-miterlimit:10"></path><path d="M213.76,260.41s-1.3,7.35-2.14,14.5" style="fill:none;stroke:#263238;stroke-miterlimit:10"></path><path d="M161.16,172.35s-9.15.71-11.26,8.45,16.88,46.43,22.51,56.29,14.08,7.74,18.3,2.81,40.1-46.44,39.4-53.48-6.33-11.25-6.33-11.25Z" style="fill:#fff;opacity:0.39"></path><path d="M165.67,178s-7.71.59-9.49,7.12,14.24,39.14,19,47.45,11.87,6.52,15.43,2.37,33.8-39.15,33.21-45.08a14.77,14.77,0,0,0-5.34-9.49Z" style="fill:#fff;opacity:0.39"></path><path d="M164.67,281.15s-23.92-35.88-28.14-36.58-15.48,14.77-12.67,24.62,12.67,21.82,20.41,23.93S164.67,281.15,164.67,281.15Z" style="fill:#fff;opacity:0.39"></path><path d="M274.55,247.36s-38.7-23.22-45-18.3-14.07,23.22-8.44,28.85,24.63,19.7,33.07,19S274.55,247.36,274.55,247.36Z" style="fill:#fff;opacity:0.39"></path><path d="M319.53,218s-45.09,6.15-50.72,13.19-11.26,14.07-6.33,20.4,28.85,20.41,39.4,25.33,20.41,1.41,22.52-8.44,8.44-38,7.74-44.33S325.22,213.26,319.53,218Z" style="fill:#fff;opacity:0.14"></path><path d="M320.88,296.63S308.21,284,297,294.52s-7,40.11,3.52,45,20.41-6.34,22.52-15.48S320.88,296.63,320.88,296.63Z" style="fill:#fff;opacity:0.14"></path><path d="M204,365.16s-16.72-20.83-32.14-15.62-17.36,30.77-9.65,34.55,24.43,9.47,31.5,7.1S204.65,373.68,204,365.16Z" style="fill:#fff;opacity:0.39"></path><path d="M197,372.24s-12.53-12-24.1-9-13,17.69-7.23,19.86,18.31,5.45,23.62,4.09S197.47,377.14,197,372.24Z" style="fill:#fff;opacity:0.39"></path><path d="M253.44,262.84c-6.33-1.41-9.85-7.74-13.36-20.41a24.25,24.25,0,0,0-4.92-9.82,4,4,0,0,0-2.64.54c-5.24,4.07-11.63,19.2-7,23.85s20.36,16.29,27.34,15.71c2.92-.24,6.34-4.54,9.33-9.46A37.15,37.15,0,0,1,253.44,262.84Z" style="fill:#fff;opacity:0.39"></path><path d="M158.34,274.12s-21.11-16.89-26.74-13.37-2.81,16.89,4.93,24.63S159.05,284.67,158.34,274.12Z" style="fill:#fff;opacity:0.39"></path><path d="M171,170l8.44,246.25s15.48,2.11,21.11.7L201.8,170.6C156.35,169.72,213.17,170.84,171,170Z" style="fill:#fff;opacity:0.39"></path><path d="M246.64,246.26a5.42,5.42,0,0,1-5.1-3.6,5.48,5.48,0,0,0-.32,1.82,5.42,5.42,0,0,0,10.84,0,5.24,5.24,0,0,0-.32-1.82A5.4,5.4,0,0,1,246.64,246.26Z" style="fill:#fff;opacity:0.39"></path><path d="M163.18,300.12a5.42,5.42,0,0,1-5.1-3.6,5.42,5.42,0,1,0,10.2,0A5.41,5.41,0,0,1,163.18,300.12Z" style="fill:#fff;opacity:0.39"></path><path d="M210.26,350.05a5.42,5.42,0,0,1-5.1-3.6,5.48,5.48,0,0,0-.32,1.82,5.42,5.42,0,0,0,10.84,0,5.24,5.24,0,0,0-.32-1.82A5.4,5.4,0,0,1,210.26,350.05Z" style="fill:#fff;opacity:0.39"></path><path d="M143.67,324.43a2.72,2.72,0,0,1-2.55-1.8,2.76,2.76,0,0,0-.16.91,2.71,2.71,0,0,0,5.42,0,2.53,2.53,0,0,0-.16-.91A2.7,2.7,0,0,1,143.67,324.43Z" style="fill:#fff;opacity:0.39"></path><path d="M162.64,332.82a2.72,2.72,0,0,1-2.55-1.8,2.72,2.72,0,1,0,5.11,0A2.72,2.72,0,0,1,162.64,332.82Z" style="fill:#fff;opacity:0.39"></path><path d="M148.33,376.07a2.7,2.7,0,0,1-2.55-1.8,2.76,2.76,0,0,0-.16.91,2.71,2.71,0,1,0,5.42,0,2.76,2.76,0,0,0-.16-.91A2.7,2.7,0,0,1,148.33,376.07Z" style="fill:#fff;opacity:0.39"></path><path d="M287.79,345a2.7,2.7,0,0,1-2.55-1.8,2.76,2.76,0,0,0-.16.91,2.71,2.71,0,1,0,5.42,0,2.76,2.76,0,0,0-.16-.91A2.7,2.7,0,0,1,287.79,345Z" style="fill:#fff;opacity:0.39"></path><path d="M263.89,335.8a2.72,2.72,0,0,1-2.55-1.8,2.76,2.76,0,0,0-.16.91,2.71,2.71,0,0,0,5.42,0,2.76,2.76,0,0,0-.16-.91A2.7,2.7,0,0,1,263.89,335.8Z" style="fill:#fff;opacity:0.39"></path><path d="M288.86,289.44a2.71,2.71,0,0,1-2.55-1.81,2.76,2.76,0,0,0-.16.91,2.71,2.71,0,1,0,5.42,0,2.76,2.76,0,0,0-.16-.91A2.71,2.71,0,0,1,288.86,289.44Z" style="fill:#fff;opacity:0.39"></path><path d="M134.78,350.78a2.7,2.7,0,0,1-2.55-1.8,2.76,2.76,0,0,0-.16.91,2.71,2.71,0,0,0,5.42,0,2.76,2.76,0,0,0-.16-.91A2.72,2.72,0,0,1,134.78,350.78Z" style="fill:#fff;opacity:0.39"></path></g><g id="freepik--Cherries--inject-31"><ellipse cx="354.93" cy="454.44" rx="52.83" ry="11.47" style="opacity:0.2"></ellipse><path d="M364,404a29.23,29.23,0,0,0-13.95-9.61c-8.83-2.64-24.33,4.65-30.54,12.55s-7.59,22-4,33.33,25.12,17.51,35,16.74,16.74-2.64,21.08-14S373.79,411.72,364,404Z" style="fill:#C8F169"></path><path d="M350.07,394.36c-8.83-2.64-24.33,4.65-30.54,12.55-3.25,4.15-5.16,10-5.75,16.26,1.3-5.18,8.11-26.73,31.73-26.09a30.52,30.52,0,0,1,17.28,5.44A29.06,29.06,0,0,0,350.07,394.36Z" style="fill:#fff"></path><path d="M373.75,430.37c-.88.26-1.82.57-2.83,1-23.29,9-48.84,1.8-57.23-1.07a42.9,42.9,0,0,0,1.81,10c3.57,11.31,25.12,17.51,35,16.74s16.74-2.64,21.08-14A37,37,0,0,0,373.75,430.37Z" style="fill:#fff;opacity:0.19"></path><path d="M329.37,421.25c.5-4.08-4-7.17-7.45-5a4.5,4.5,0,0,0-.82.65c-3.07,3-5,14.29.33,19.6s7.32-1.66,7.32-7A72.93,72.93,0,0,1,329.37,421.25Z" style="fill:#fff"></path><path d="M364,404a29.23,29.23,0,0,0-13.95-9.61c-8.83-2.64-24.33,4.65-30.54,12.55s-7.59,22-4,33.33,25.12,17.51,35,16.74,16.74-2.64,21.08-14S373.79,411.72,364,404Z" style="fill:none;stroke:#263238;stroke-miterlimit:10"></path><path d="M404.35,399.29s15.18-4.79,22.1-18.64,9.32-28,8.26-33.82,2.92-7.46,6.12-5.86-1.06,18.38-4.26,29.56-7.72,21-13.58,28a109.21,109.21,0,0,1-10.12,10.65l-2.4-2.93s15.18-10.39,20.24-26.63c0,0-5.59,13.85-22.37,23.7Z" style="fill:#263238;stroke:#263238;stroke-linecap:round;stroke-linejoin:round"></path><path d="M431.78,377.72s6.92-14.91,8-24.23" style="fill:#fff;stroke:#263238;stroke-miterlimit:10"></path><path d="M416.86,413.41s-4.53-11.72-13.31-18.11-23.17-5.59-32.76,1.33-15.45,13.05-18.37,25-3.45,25.1,5.06,33.82c9,9.24,28.66,10.22,37.44,7s15.48-4.46,21.87-14,4.87-20.16,3.53-25.22A74.09,74.09,0,0,0,416.86,413.41Z" style="fill:#C8F169"></path><path d="M412.51,405.17a37.24,37.24,0,0,0-9-9.87c-8.79-6.39-23.17-5.59-32.76,1.33s-15.45,13.05-18.37,25c-.47,1.9-.87,3.84-1.18,5.78,0,0,7.87-28.53,30.66-32.57C397.08,392.18,406.6,399.4,412.51,405.17Z" style="fill:#fff"></path><path d="M386.57,444.88c-21.71-1-32.19-13-35.33-17.43-1.68,10.27-.92,20.71,6.24,28,9,9.24,28.66,10.22,37.44,7s15.48-4.46,21.87-14a27.56,27.56,0,0,0,3.72-8.31C414.64,442.56,403.52,445.68,386.57,444.88Z" style="fill:#fff;opacity:0.26"></path><path d="M404.85,411.59s-6.64,3.32-6.31,5.32,1.33,9.63,5,9.63,9.64-2.65,9.31-5.65S409.84,408.93,404.85,411.59Z" style="fill:#fff"></path><path d="M416.86,413.41s-4.53-11.72-13.31-18.11-23.17-5.59-32.76,1.33-15.45,13.05-18.37,25-3.45,25.1,5.06,33.82c9,9.24,28.66,10.22,37.44,7s15.48-4.46,21.87-14,4.87-20.16,3.53-25.22A74.09,74.09,0,0,0,416.86,413.41Z" style="fill:none;stroke:#263238;stroke-miterlimit:10"></path><path d="M434.71,351.09s-8,4.8-10.92,3.2S398.22,346,386.24,346s-12.25-4.79-20.78,8.79-14.11,32-14.38,32.76,8.26-5.6,18.11-5.6,24.24-2.13,35.69-8a79.94,79.94,0,0,0,20-15.18l10.12-5.6S436.84,349.49,434.71,351.09Z" style="fill:#C8F169;stroke:#263238;stroke-miterlimit:10"></path><path d="M364.41,377.71a44,44,0,0,0-8.93,6.43" style="fill:none;stroke:#263238;stroke-miterlimit:10"></path><path d="M414,357.62c-8.05,2.06-21.73,6-32.56,11.22-5.75,2.78-10.26,5.09-13.83,7.06" style="fill:none;stroke:#263238;stroke-miterlimit:10"></path><path d="M420.79,356s-1.48.32-4,.92" style="fill:none;stroke:#263238;stroke-miterlimit:10"></path><line x1="383.05" y1="367.19" x2="372.44" y2="355.16" style="fill:none;stroke:#263238;stroke-miterlimit:10"></line><path d="M383.86,369s-3.46,8.15-5.09,8.77" style="fill:none;stroke:#263238;stroke-miterlimit:10"></path><path d="M365.1,365s11.22,5.1,11,5.91-5.92,7.55-5.92,7.55" style="fill:none;stroke:#263238;stroke-miterlimit:10"></path><path d="M392,371.29c-.51,1.27-.92,2.23-1,2.43" style="fill:none;stroke:#263238;stroke-miterlimit:10"></path><path d="M386.87,356.7c3.48,2.85,7.38,6.15,7.6,6.82s-.8,3.53-1.79,6.06" style="fill:none;stroke:#263238;stroke-miterlimit:10"></path><path d="M381.42,352.3s1.39,1.1,3.26,2.61" style="fill:none;stroke:#263238;stroke-miterlimit:10"></path><path d="M396.51,352.1s9,6.53,9.18,7.34-2.86,7.75-4.29,11.22" style="fill:none;stroke:#263238;stroke-miterlimit:10"></path><line x1="412.62" y1="358.22" x2="408.95" y2="366.78" style="fill:none;stroke:#263238;stroke-miterlimit:10"></line><line x1="410.78" y1="355.16" x2="405.28" y2="351.08" style="fill:none;stroke:#263238;stroke-miterlimit:10"></line><path d="M441,352.41s3.24,3.35,3.24,4.69-3.57,10.16-.89,16.86,6.36,16,11,20.43,9.72,10.61,10.83,13.51,1.57,8,2,6.48,1.45-13.29,1.45-13.29,4.58-9.38,3.24-19.54-10.27-19.65-15.18-22.11a51.94,51.94,0,0,0-11.62-3.68l-3.79-4.91Z" style="fill:#C8F169;stroke:#263238;stroke-miterlimit:10"></path><path d="M466.42,397.24a22.26,22.26,0,0,1,.28,7.39" style="fill:none;stroke:#263238;stroke-miterlimit:10"></path><path d="M446.75,359.54a122.63,122.63,0,0,1,14.75,23.23,57.38,57.38,0,0,1,4.15,10.93" style="fill:none;stroke:#263238;stroke-miterlimit:10"></path><line x1="449.53" y1="364.34" x2="445.86" y2="373.31" style="fill:none;stroke:#263238;stroke-miterlimit:10"></line><path d="M452,364.13s7.75.41,9.79,1.23" style="fill:none;stroke:#263238;stroke-miterlimit:10"></path><path d="M462.05,372.05a21.71,21.71,0,0,1,3.59,1.87" style="fill:none;stroke:#263238;stroke-miterlimit:10"></path><path d="M449.94,381.06l4.28-11.42a46.93,46.93,0,0,1,5.9,1.66" style="fill:none;stroke:#263238;stroke-miterlimit:10"></path><path d="M456.62,380.31l1.88-3.53s10,5.3,11.22,6.32" style="fill:none;stroke:#263238;stroke-miterlimit:10"></path><line x1="453.41" y1="386.36" x2="455.6" y2="382.24" style="fill:none;stroke:#263238;stroke-miterlimit:10"></line><polyline points="459.45 388.93 462.58 384.52 469.11 390.85" style="fill:none;stroke:#263238;stroke-miterlimit:10"></polyline><line x1="457.08" y1="392.27" x2="458.26" y2="390.61" style="fill:none;stroke:#263238;stroke-miterlimit:10"></line></g></svg>
